<mxfile host="app.diagrams.net" modified="2022-01-01T13:35:21.079Z" agent="5.0 (Windows NT 10.0; Win64; x64) AppleWebKit/537.36 (KHTML, like Gecko) Chrome/96.0.4664.110 Safari/537.36" etag="mruihVFKznhIdX3eWG5k" version="15.9.1" type="github">
  <diagram id="C5RBs43oDa-KdzZeNtuy" name="Page-1">
    <mxGraphModel dx="868" dy="2788" grid="1" gridSize="10" guides="1" tooltips="1" connect="1" arrows="1" fold="1" page="1" pageScale="1" pageWidth="827" pageHeight="1169" math="0" shadow="0">
      <root>
        <mxCell id="WIyWlLk6GJQsqaUBKTNV-0" />
        <mxCell id="WIyWlLk6GJQsqaUBKTNV-1" parent="WIyWlLk6GJQsqaUBKTNV-0" />
        <mxCell id="no_tZ2cSG9QQaZqRgWGx-10" style="edgeStyle=orthogonalEdgeStyle;rounded=0;orthogonalLoop=1;jettySize=auto;html=1;entryX=0.5;entryY=0;entryDx=0;entryDy=0;" edge="1" parent="WIyWlLk6GJQsqaUBKTNV-1" source="no_tZ2cSG9QQaZqRgWGx-0" target="no_tZ2cSG9QQaZqRgWGx-8">
          <mxGeometry relative="1" as="geometry">
            <Array as="points">
              <mxPoint x="420" y="-1480" />
            </Array>
          </mxGeometry>
        </mxCell>
        <mxCell id="no_tZ2cSG9QQaZqRgWGx-0" value="" style="ellipse;whiteSpace=wrap;html=1;fillColor=#e1d5e7;strokeColor=#9673a6;" vertex="1" parent="WIyWlLk6GJQsqaUBKTNV-1">
          <mxGeometry x="350" y="-1590" width="140" height="80" as="geometry" />
        </mxCell>
        <mxCell id="no_tZ2cSG9QQaZqRgWGx-1" value="&lt;font style=&quot;vertical-align: inherit&quot;&gt;&lt;font style=&quot;vertical-align: inherit&quot;&gt;main&lt;/font&gt;&lt;/font&gt;" style="text;html=1;resizable=0;autosize=1;align=center;verticalAlign=middle;points=[];fillColor=none;strokeColor=none;rounded=0;" vertex="1" parent="WIyWlLk6GJQsqaUBKTNV-1">
          <mxGeometry x="390" y="-1570" width="40" height="20" as="geometry" />
        </mxCell>
        <mxCell id="no_tZ2cSG9QQaZqRgWGx-12" style="edgeStyle=orthogonalEdgeStyle;rounded=0;orthogonalLoop=1;jettySize=auto;html=1;exitX=0.5;exitY=1;exitDx=0;exitDy=0;" edge="1" parent="WIyWlLk6GJQsqaUBKTNV-1" source="no_tZ2cSG9QQaZqRgWGx-8">
          <mxGeometry relative="1" as="geometry">
            <mxPoint x="420" y="-1340" as="targetPoint" />
          </mxGeometry>
        </mxCell>
        <mxCell id="no_tZ2cSG9QQaZqRgWGx-8" value="" style="shape=internalStorage;whiteSpace=wrap;html=1;backgroundOutline=1;fillColor=#fff2cc;strokeColor=#d6b656;" vertex="1" parent="WIyWlLk6GJQsqaUBKTNV-1">
          <mxGeometry x="355" y="-1480" width="130" height="90" as="geometry" />
        </mxCell>
        <mxCell id="no_tZ2cSG9QQaZqRgWGx-11" value="&lt;font style=&quot;vertical-align: inherit&quot;&gt;&lt;font style=&quot;vertical-align: inherit&quot;&gt;Reel r,&amp;nbsp;area&lt;/font&gt;&lt;/font&gt;" style="text;html=1;resizable=0;autosize=1;align=center;verticalAlign=middle;points=[];rounded=0;" vertex="1" parent="WIyWlLk6GJQsqaUBKTNV-1">
          <mxGeometry x="370" y="-1440" width="80" height="20" as="geometry" />
        </mxCell>
        <mxCell id="no_tZ2cSG9QQaZqRgWGx-15" style="edgeStyle=orthogonalEdgeStyle;rounded=0;orthogonalLoop=1;jettySize=auto;html=1;exitX=0.5;exitY=1;exitDx=0;exitDy=0;" edge="1" parent="WIyWlLk6GJQsqaUBKTNV-1" source="no_tZ2cSG9QQaZqRgWGx-13">
          <mxGeometry relative="1" as="geometry">
            <mxPoint x="420" y="-1240" as="targetPoint" />
          </mxGeometry>
        </mxCell>
        <mxCell id="no_tZ2cSG9QQaZqRgWGx-13" value="" style="shape=parallelogram;perimeter=parallelogramPerimeter;whiteSpace=wrap;html=1;fixedSize=1;fillColor=#60a917;strokeColor=#2D7600;fontColor=#ffffff;" vertex="1" parent="WIyWlLk6GJQsqaUBKTNV-1">
          <mxGeometry x="335" y="-1340" width="170" height="70" as="geometry" />
        </mxCell>
        <mxCell id="no_tZ2cSG9QQaZqRgWGx-20" style="edgeStyle=orthogonalEdgeStyle;rounded=0;orthogonalLoop=1;jettySize=auto;html=1;exitX=0.5;exitY=1;exitDx=0;exitDy=0;" edge="1" parent="WIyWlLk6GJQsqaUBKTNV-1" source="no_tZ2cSG9QQaZqRgWGx-16">
          <mxGeometry relative="1" as="geometry">
            <mxPoint x="420" y="-1160" as="targetPoint" />
          </mxGeometry>
        </mxCell>
        <mxCell id="no_tZ2cSG9QQaZqRgWGx-16" value="" style="shape=parallelogram;perimeter=parallelogramPerimeter;whiteSpace=wrap;html=1;fixedSize=1;fillColor=#1ba1e2;fontColor=#ffffff;strokeColor=#006EAF;" vertex="1" parent="WIyWlLk6GJQsqaUBKTNV-1">
          <mxGeometry x="360" y="-1240" width="120" height="60" as="geometry" />
        </mxCell>
        <mxCell id="no_tZ2cSG9QQaZqRgWGx-19" value="input r" style="text;html=1;resizable=0;autosize=1;align=center;verticalAlign=middle;points=[];fillColor=none;strokeColor=none;rounded=0;" vertex="1" parent="WIyWlLk6GJQsqaUBKTNV-1">
          <mxGeometry x="390" y="-1220" width="50" height="20" as="geometry" />
        </mxCell>
        <mxCell id="no_tZ2cSG9QQaZqRgWGx-26" style="edgeStyle=orthogonalEdgeStyle;rounded=0;orthogonalLoop=1;jettySize=auto;html=1;exitX=0.5;exitY=1;exitDx=0;exitDy=0;" edge="1" parent="WIyWlLk6GJQsqaUBKTNV-1" source="no_tZ2cSG9QQaZqRgWGx-21">
          <mxGeometry relative="1" as="geometry">
            <mxPoint x="420" y="-1070" as="targetPoint" />
          </mxGeometry>
        </mxCell>
        <mxCell id="no_tZ2cSG9QQaZqRgWGx-21" value="" style="rounded=0;whiteSpace=wrap;html=1;fillColor=#ffe6cc;strokeColor=#d79b00;" vertex="1" parent="WIyWlLk6GJQsqaUBKTNV-1">
          <mxGeometry x="360" y="-1160" width="120" height="60" as="geometry" />
        </mxCell>
        <mxCell id="no_tZ2cSG9QQaZqRgWGx-22" value="area = 3.14 * r * r" style="text;html=1;resizable=0;autosize=1;align=center;verticalAlign=middle;points=[];fillColor=none;strokeColor=none;rounded=0;" vertex="1" parent="WIyWlLk6GJQsqaUBKTNV-1">
          <mxGeometry x="365" y="-1140" width="110" height="20" as="geometry" />
        </mxCell>
        <mxCell id="no_tZ2cSG9QQaZqRgWGx-25" value="Output &quot;Enter Radius&quot;" style="text;html=1;resizable=0;autosize=1;align=center;verticalAlign=middle;points=[];fillColor=none;strokeColor=none;rounded=0;" vertex="1" parent="WIyWlLk6GJQsqaUBKTNV-1">
          <mxGeometry x="349" y="-1315" width="130" height="20" as="geometry" />
        </mxCell>
        <mxCell id="no_tZ2cSG9QQaZqRgWGx-30" style="edgeStyle=orthogonalEdgeStyle;rounded=0;orthogonalLoop=1;jettySize=auto;html=1;exitX=0.5;exitY=1;exitDx=0;exitDy=0;" edge="1" parent="WIyWlLk6GJQsqaUBKTNV-1" source="no_tZ2cSG9QQaZqRgWGx-28">
          <mxGeometry relative="1" as="geometry">
            <mxPoint x="420" y="-960" as="targetPoint" />
          </mxGeometry>
        </mxCell>
        <mxCell id="no_tZ2cSG9QQaZqRgWGx-28" value="" style="shape=parallelogram;perimeter=parallelogramPerimeter;whiteSpace=wrap;html=1;fixedSize=1;fillColor=#60a917;fontColor=#ffffff;strokeColor=#2D7600;" vertex="1" parent="WIyWlLk6GJQsqaUBKTNV-1">
          <mxGeometry x="340" y="-1070" width="160" height="70" as="geometry" />
        </mxCell>
        <mxCell id="no_tZ2cSG9QQaZqRgWGx-29" value="Output &quot;Area: &quot; &amp;amp; area" style="text;html=1;resizable=0;autosize=1;align=center;verticalAlign=middle;points=[];fillColor=none;strokeColor=none;rounded=0;" vertex="1" parent="WIyWlLk6GJQsqaUBKTNV-1">
          <mxGeometry x="349" y="-1040" width="130" height="20" as="geometry" />
        </mxCell>
        <mxCell id="no_tZ2cSG9QQaZqRgWGx-31" value="" style="ellipse;whiteSpace=wrap;html=1;fillColor=#f8cecc;strokeColor=#b85450;" vertex="1" parent="WIyWlLk6GJQsqaUBKTNV-1">
          <mxGeometry x="360" y="-960" width="120" height="80" as="geometry" />
        </mxCell>
        <mxCell id="no_tZ2cSG9QQaZqRgWGx-32" value="End" style="text;html=1;resizable=0;autosize=1;align=center;verticalAlign=middle;points=[];fillColor=none;strokeColor=none;rounded=0;" vertex="1" parent="WIyWlLk6GJQsqaUBKTNV-1">
          <mxGeometry x="400" y="-930" width="40" height="20" as="geometry" />
        </mxCell>
      </root>
    </mxGraphModel>
  </diagram>
</mxfile>
